<svg width="1077" height="1054" viewBox="0 0 1077 1054" fill="none" xmlns="http://www.w3.org/2000/svg">
<path d="M809.653 998C1038.86 923.956 1159.9 553.953 1003.47 321.51C862.488 112.013 482.771 98.3513 481.007 277.757C479.378 443.363 763.665 476.734 887.237 656.389C897.533 671.359 907.31 684.147 914.52 704.505C923.237 729.121 922.674 750.254 923.027 770.821C924.499 856.456 897.666 929.005 809.653 998Z" fill="url(#paint0_linear_6_267)" stroke="#A0A0A0" stroke-width="5"/>
<path d="M900.788 293.134C891.959 248.529 808.601 203.155 766.899 189.523C721.658 174.733 661.115 173.843 666.45 195.29C671.785 216.737 702.097 221.789 734.093 226.841C766.088 231.894 865.704 248.893 900.788 293.134Z" fill="url(#paint1_linear_6_267)" fill-opacity="0.7"/>
<path d="M230.403 999.226C117.559 946.971 -5.97058 734.327 3.51392 530.205C14.3401 297.207 134.664 130.804 338.677 41.3631C434.678 -0.724614 651.944 -24.3776 811.946 58.2197C627.435 2.78227 289.834 35.0815 289.834 285.784C289.834 536.486 665.418 590.889 768.156 739.227C870.894 887.566 405.141 1161.83 326.884 702.143C291.101 773.984 311.726 853.852 311.726 853.852C311.726 853.852 233.628 727.641 252.781 601.003C228.263 647.532 215.717 690.948 212.852 730.799C208.848 786.494 223.755 835.226 251.327 875.766C281.811 920.586 327.777 955.392 380.782 978.52C426.223 998.347 476.839 1009.59 527.311 1011.2C572.487 1012.65 617.548 1006.38 658.681 991.635C711.657 972.651 758.117 939.62 789.911 890.937C800.753 874.334 809.89 855.912 816.999 835.605C820.42 825.832 823.878 817.267 825.817 804.968C827.561 793.903 827.104 786.195 827.104 776.312C827.104 599.317 499.653 577.404 380.782 366.696C261.912 155.988 586.259 -17.635 881 145.874C590.815 41.4496 451.056 137.495 426.257 245.328C412.625 304.601 444.021 368.612 480.152 402.095C616.575 528.519 845.631 589.203 872.579 757.77C886.776 950.382 655.303 1128.88 345.413 1015.68C309.46 1003.64 196.278 932.241 153.411 865.652C153.411 865.652 193.35 958.77 230.403 999.226Z" fill="url(#paint2_linear_6_267)"/>
<path d="M230.403 999.226C117.559 946.971 -5.97058 734.327 3.51392 530.205C14.3401 297.207 134.664 130.804 338.677 41.3631C434.678 -0.724614 651.944 -24.3776 811.946 58.2197C627.435 2.78227 289.834 35.0815 289.834 285.784C289.834 536.486 665.418 590.889 768.156 739.227C870.894 887.566 405.141 1161.83 326.884 702.143C291.101 773.984 311.726 853.852 311.726 853.852C311.726 853.852 233.628 727.641 252.781 601.003C228.263 647.532 215.717 690.948 212.852 730.799C208.848 786.494 223.755 835.226 251.327 875.766C281.811 920.586 327.777 955.392 380.782 978.52C426.223 998.347 476.839 1009.59 527.311 1011.2C572.487 1012.65 617.548 1006.38 658.681 991.635C711.657 972.651 758.117 939.62 789.911 890.937C800.753 874.334 809.89 855.912 816.999 835.605C820.42 825.832 823.878 817.267 825.817 804.968C827.561 793.903 827.104 786.195 827.104 776.312C827.104 599.317 499.653 577.404 380.782 366.696C261.912 155.988 586.259 -17.635 881 145.874C590.815 41.4496 451.056 137.495 426.257 245.328C412.625 304.601 444.021 368.612 480.152 402.095C616.575 528.519 845.631 589.203 872.579 757.77C886.776 950.382 655.303 1128.88 345.413 1015.68C309.46 1003.64 196.278 932.241 153.411 865.652C153.411 865.652 193.35 958.77 230.403 999.226Z" fill="#F08D15" fill-opacity="0.2"/>
<path d="M230.403 999.226C117.559 946.971 -5.97058 734.327 3.51392 530.205C14.3401 297.207 134.664 130.804 338.677 41.3631C434.678 -0.724614 651.944 -24.3776 811.946 58.2197C627.435 2.78227 289.834 35.0815 289.834 285.784C289.834 536.486 665.418 590.889 768.156 739.227C870.894 887.566 405.141 1161.83 326.884 702.143C291.101 773.984 311.726 853.852 311.726 853.852C311.726 853.852 233.628 727.641 252.781 601.003C228.263 647.532 215.717 690.948 212.852 730.799C208.848 786.494 223.755 835.226 251.327 875.766C281.811 920.586 327.777 955.392 380.782 978.52C426.223 998.347 476.839 1009.59 527.311 1011.2C572.487 1012.65 617.548 1006.38 658.681 991.635C711.657 972.651 758.117 939.62 789.911 890.937C800.753 874.334 809.89 855.912 816.999 835.605C820.42 825.832 823.878 817.267 825.817 804.968C827.561 793.903 827.104 786.195 827.104 776.312C827.104 599.317 499.653 577.404 380.782 366.696C261.912 155.988 586.259 -17.635 881 145.874C590.815 41.4496 451.056 137.495 426.257 245.328C412.625 304.601 444.021 368.612 480.152 402.095C616.575 528.519 845.631 589.203 872.579 757.77C886.776 950.382 655.303 1128.88 345.413 1015.68C309.46 1003.64 196.278 932.241 153.411 865.652C153.411 865.652 193.35 958.77 230.403 999.226Z" stroke="#A0A0A0" stroke-width="5"/>
<defs>
<linearGradient id="paint0_linear_6_267" x1="728.177" y1="98.6995" x2="840.748" y2="1087.27" gradientUnits="userSpaceOnUse">
<stop stop-color="#14497D"/>
<stop offset="0.56" stop-color="#31B3F9"/>
</linearGradient>
<linearGradient id="paint1_linear_6_267" x1="612.845" y1="199.897" x2="923.725" y2="331.132" gradientUnits="userSpaceOnUse">
<stop stop-color="white"/>
<stop offset="1" stop-color="white" stop-opacity="0.2"/>
</linearGradient>
<linearGradient id="paint2_linear_6_267" x1="310.044" y1="0.907366" x2="595.132" y2="1093.1" gradientUnits="userSpaceOnUse">
<stop offset="0.465" stop-color="#F04427"/>
<stop offset="1" stop-color="#ECF015"/>
</linearGradient>
</defs>
</svg>
